<svg xmlns="http://www.w3.org/2000/svg" width="64" height="64" viewBox="0 0 64 64"><path d="M6.313 57.37C3.256 52.003 8.902 42.218 11.22 39.5c.987-1.157 3.232-2.888 3.747-2.888a6.672 6.672 0 0 1 2.185-.506c1.367-.077 1.53-.14 2.026-.788.297-.387.707-.704.913-.704.337 0 1.513-1.69 1.89-2.72.078-.213.45-.47.826-.569.973-.258.846-.734-.365-1.363-.793-.412-1.135-.487-1.409-.311-1.297-.147-4.325-2.23-3.54-3.794.375-1.47 1.222-3.055 1.775-4.22.519-.546.27-.731-2.273-1.692-1.422-.537-2.897-1.76-3.095-2.567-.968-2.154-.202-2.271.126-4.124.252-1.886 1.145-3.485 1.229-5.188-.027-.445.298-.742.303-1.164.004-.955.972-2.818 1.802-3.465.963-.75 1.798-.879 3.848-.593 5.538.773 7.274.928 7.362.658.05-.151.467-.652.928-1.114.461-.461.838-1.04.838-1.286 0-.277.26-.585.682-.808.825-.435 2.686-.294 4.445.337.631.227 1.193.366 1.249.309.083-.086.88.099 2.21.512.378.117 2.981.77 4.673 1.173 1.527.364 1.975.5 2.853.868.472.197 2.576 2.678 2.821 3.326.26.685.249 2.783-.015 3.053-.179.183-.716 2.243-.98 3.76-.043.244-.095.444-.115.444-.035 0-.22.741-.972 3.886-.19.793-.39 1.593-.444 1.776-.151.515-.777 3.178-.835 3.556a1.886 1.886 0 0 1-.179.555c-.07.12-.2.668-.286 1.218-.088.55-.221 1.099-.297 1.22-.2.321-.882 3.31-1.14 4.997-.264 1.72-.668 2.442-1.367 2.442-1.497.63-2.606.664-3.749.666h-2.695l-.647 1.043c-.356.573-.647 1.154-.647 1.29 0 .42 1.995 2.315 2.833 2.693 1.067.48 1.24.832 1.633 3.332.186 1.183.432 2.328.545 2.544.392.75.25 1.31-.333 1.31-.534 0-.53.016.45 1.665 1.06 1.781 2.04 2.964 2.808 5.258l.884 2.233 2.177-1.149c.593-.48.732-.264 1.651-1.2.92-.935 1.82-1.7 1.999-1.7.474 0 1.002-.881 1.002-1.672 0-.377-.234-1.01-.52-1.405-.286-.397-.589-1.188-.673-1.759-.097-.66-.374-1.296-.762-1.747-.663-.772-1.087-2.34-1.089-4.03 0-.575-.151-1.338-.334-1.696-.183-.358-.28-.789-.218-.957.17-.452-1.712-1.248-2.547-1.077-.735.15-1.247-.162-1.247-.762 0-.35.158-.382 1.359-.28 1.31.112 2.375.498 3.748 1.357.452.283.69.64.776 1.167.167 1.025.787 2.204.924 1.759.057-.184.272-.933.478-1.666.206-.732.512-1.557.68-1.831.382-.626 1.164-.658 1.319-.056.1.395.306.446 1.881.466 2.133.026 2.516.132 3.385.927l.673.616-.142 2.072c-.1 1.45-.069 2.118.104 2.228.392.247.295.804-.403 2.31-.998 2.156-2.058 6.586-1.831 7.659.072.344.062.859-.114 1.231-1.28 2.704-3.718 4.956-6.389 6.304-5.843 2.95-12.421 2.998-19.397 3.052-8.26.071-19.811.628-23.898-6.55z" fill="#5899ce"/></svg>