<?xml version="1.0" encoding="UTF-8" standalone="no"?>
<!-- Created with Inkscape (http://www.inkscape.org/) -->

<svg
   xmlns:dc="http://purl.org/dc/elements/1.1/"
   xmlns:cc="http://creativecommons.org/ns#"
   xmlns:rdf="http://www.w3.org/1999/02/22-rdf-syntax-ns#"
   xmlns:svg="http://www.w3.org/2000/svg"
   xmlns="http://www.w3.org/2000/svg"
   xmlns:sodipodi="http://sodipodi.sourceforge.net/DTD/sodipodi-0.dtd"
   xmlns:inkscape="http://www.inkscape.org/namespaces/inkscape"
   width="64"
   height="64"
   viewBox="0 0 64 64"
   id="svg2"
   version="1.1"
   inkscape:version="0.91 r13725"
   sodipodi:docname="logo.svg"
   inkscape:export-filename="C:\Users\sevenns\Dropbox\projects\webdev\e-detective\new\images\logo.png"
   inkscape:export-xdpi="90"
   inkscape:export-ydpi="90">
  <defs
     id="defs4" />
  <sodipodi:namedview
     id="base"
     pagecolor="#ffffff"
     bordercolor="#666666"
     borderopacity="1.0"
     inkscape:pageopacity="0.0"
     inkscape:pageshadow="2"
     inkscape:zoom="7.2775864"
     inkscape:cx="27.57866"
     inkscape:cy="35.166716"
     inkscape:document-units="px"
     inkscape:current-layer="layer1"
     showgrid="false"
     units="px"
     inkscape:showpageshadow="false"
     showborder="true"
     inkscape:snap-global="false"
     inkscape:window-width="1366"
     inkscape:window-height="716"
     inkscape:window-x="-7"
     inkscape:window-y="-7"
     inkscape:window-maximized="1" />
  <metadata
     id="metadata7">
    <rdf:RDF>
      <cc:Work
         rdf:about="">
        <dc:format>image/svg+xml</dc:format>
        <dc:type
           rdf:resource="http://purl.org/dc/dcmitype/StillImage" />
        <dc:title />
      </cc:Work>
    </rdf:RDF>
  </metadata>
  <g
     inkscape:label="Layer 1"
     inkscape:groupmode="layer"
     id="layer1"
     transform="translate(0,-988.36216)">
    <path
       style="fill:#5899ce;fill-opacity:1"
       d="m 6.3126703,1045.7331 c -3.057085,-5.3685 2.5891748,-15.1535 4.9076007,-17.8723 0.986717,-1.1569 3.232195,-2.8875 3.74677,-2.8875 0.726621,-0.3117 1.50482,-0.4642 2.184877,-0.5057 1.367452,-0.077 1.530205,-0.141 2.026274,-0.7884 0.296674,-0.3872 0.707258,-0.7042 0.912427,-0.7042 0.337853,0 1.51301,-1.6907 1.890305,-2.7196 0.07832,-0.2136 0.449852,-0.4698 0.825627,-0.5691 0.973455,-0.2577 0.846047,-0.7342 -0.364427,-1.3629 -0.793562,-0.4121 -1.135282,-0.4876 -1.408954,-0.3113 -1.297487,-0.1466 -4.32489,-2.2294 -3.541033,-3.7943 0.376065,-1.4689 1.222447,-3.0551 1.775963,-4.2204 0.518862,-0.5455 0.270139,-0.7305 -2.273043,-1.6912 -1.421637,-0.537 -2.89718,-1.7606 -3.095275,-2.5669 -0.967725,-2.1546 -0.201665,-2.2713 0.126444,-4.1246 0.25202,-1.88536 1.145207,-3.48501 1.228382,-5.18774 -0.02689,-0.44529 0.297896,-0.74203 0.303846,-1.16335 0.0033,-0.95582 0.971927,-2.81838 1.801791,-3.46495 0.963229,-0.7505 1.797321,-0.87911 3.847292,-0.59327 5.538473,0.77232 7.274857,0.92733 7.36296,0.65734 0.04917,-0.15071 0.466619,-0.6517 0.927655,-1.11332 0.461045,-0.46165 0.838258,-1.04056 0.838258,-1.2865 0,-0.2766 0.260052,-0.58451 0.681867,-0.80733 0.824687,-0.43565 2.686157,-0.29462 4.444601,0.33672 0.631148,0.22661 1.193153,0.36539 1.248907,0.30846 0.08353,-0.0854 0.880026,0.0991 2.210116,0.51195 0.378383,0.11743 2.981136,0.77122 4.673114,1.17383 1.527254,0.36342 1.974733,0.49945 2.852878,0.86725 0.472076,0.19773 2.576015,2.6784 2.821187,3.32636 0.259315,0.68529 0.248623,2.78347 -0.01557,3.05331 -0.178498,0.18228 -0.715832,2.24294 -0.980391,3.75974 -0.0426,0.2444 -0.0938,0.4441 -0.113781,0.4441 -0.03487,0 -0.22039,0.7412 -0.972568,3.8855 -0.189878,0.7937 -0.389359,1.593 -0.443291,1.7763 -0.151617,0.5148 -0.777061,3.1785 -0.835092,3.5564 -0.02848,0.1854 -0.109193,0.435 -0.179404,0.5549 -0.07022,0.12 -0.199118,0.6678 -0.286469,1.2173 -0.08736,0.5496 -0.2209,1.0992 -0.296766,1.2212 -0.199236,0.3207 -0.881369,3.3101 -1.139934,4.9958 -0.26398,1.7208 -0.667871,2.4421 -1.367302,2.4421 -1.496513,0.6311 -2.605094,0.6647 -3.748025,0.6661 l -2.695097,0 -0.647273,1.0428 c -0.356001,0.5733 -0.647275,1.1545 -0.647275,1.2913 0,0.4185 1.994908,2.314 2.833004,2.6918 1.067027,0.4808 1.23953,0.8328 1.633277,3.3324 0.186366,1.183 0.431405,2.3276 0.544532,2.5436 0.392743,0.7497 0.250301,1.3099 -0.333021,1.3099 -0.533283,0 -0.528749,0.016 0.450912,1.6651 1.058874,1.7816 2.039256,2.9641 2.807574,5.258 l 0.884078,2.2331 2.177278,-1.1484 c 0.592909,-0.4804 0.731245,-0.2647 1.650959,-1.2003 0.91972,-0.9355 1.818907,-1.7009 1.998204,-1.7009 0.474449,0 1.002698,-0.8806 1.002698,-1.6715 0,-0.3764 -0.234164,-1.0087 -0.52036,-1.405 -0.286194,-0.3962 -0.588939,-1.1875 -0.672762,-1.7586 -0.09691,-0.6601 -0.374356,-1.2963 -0.762081,-1.7474 -0.663073,-0.7715 -1.086926,-2.3399 -1.089094,-4.0302 -5.36e-4,-0.5741 -0.151001,-1.337 -0.333919,-1.6953 -0.182921,-0.3584 -0.280946,-0.7889 -0.217838,-0.9569 0.169881,-0.4522 -1.711947,-1.2482 -2.547444,-1.0775 -0.735327,0.1502 -1.246543,-0.1621 -1.246543,-0.7616 0,-0.3499 0.157661,-0.3825 1.358463,-0.2799 1.310196,0.1117 2.375256,0.4973 3.748465,1.3568 0.451808,0.2827 0.689218,0.64 0.775437,1.167 0.167781,1.0254 0.787475,2.204 0.924779,1.7586 0.05648,-0.1832 0.271209,-0.9325 0.477177,-1.6652 0.205972,-0.7326 0.511889,-1.557 0.679826,-1.8316 0.38218,-0.6254 1.164804,-0.6583 1.3191,-0.056 0.101294,0.3956 0.306202,0.4463 1.881499,0.4661 2.132806,0.026 2.515699,0.1316 3.384903,0.9268 l 0.673177,0.616 -0.142578,2.0719 c -0.09985,1.4511 -0.06849,2.1187 0.104662,2.2281 0.391627,0.2471 0.294453,0.8042 -0.403023,2.3103 -0.998511,2.1561 -2.057782,6.5856 -1.831559,7.6589 0.07248,0.344 0.06249,0.8586 -0.11384,1.2311 -1.280079,2.7041 -3.71774,4.9561 -6.388605,6.3041 -5.843279,2.9491 -12.4214,2.998 -19.397321,3.0522 -8.259534,0.071 -19.810881,0.6278 -23.8981788,-6.55 z"
       id="path4172"
       inkscape:connector-curvature="0"
       sodipodi:nodetypes="cccccsssscccsccccssssssscsssscssssscscsccccscssscccccsssccccccsccccscscscscscaacac" />
  </g>
</svg>
